<?xml version="1.0" encoding="iso-8859-1"?>
<!-- Generator: Adobe Illustrator 19.0.0, SVG Export Plug-In . SVG Version: 6.00 Build 0)  -->
<svg version="1.1" id="Layer_1" xmlns="http://www.w3.org/2000/svg" xmlns:xlink="http://www.w3.org/1999/xlink" x="0px" y="0px"
	 viewBox="0 0 512 512" style="enable-background:new 0 0 512 512;" xml:space="preserve">
<polygon style="fill:#E6E2E0;" points="81.086,11.584 81.086,500.416 349.828,500.416 372.996,442.498 430.914,419.33 
	430.914,11.584 "/>
<polygon style="fill:#CCC4C1;" points="349.828,419.33 349.828,500.416 430.914,419.33 "/>
<g>
	<path style="fill:#EE3840;" d="M159.855,331.956c-2.602,0-5.142-0.877-7.202-2.51l-20.851-16.547
		c-5.01-3.978-5.85-11.264-1.872-16.275c3.977-5.012,11.262-5.85,16.275-1.872l11.688,9.276l29.886-38.426
		c3.929-5.05,11.207-5.956,16.255-2.032c5.049,3.928,5.96,11.206,2.032,16.255l-37.068,47.659c-1.899,2.44-4.694,4.021-7.763,4.389
		C160.775,331.929,160.314,331.956,159.855,331.956z"/>
	<path style="fill:#EE3840;" d="M159.855,250.87c-2.602,0-5.142-0.877-7.202-2.51l-20.851-16.547
		c-5.01-3.978-5.85-11.264-1.872-16.275c3.977-5.011,11.262-5.851,16.275-1.872l11.688,9.276l29.886-38.425
		c3.929-5.049,11.207-5.958,16.255-2.032c5.049,3.928,5.96,11.206,2.032,16.255l-37.068,47.659c-1.899,2.44-4.694,4.021-7.763,4.389
		C160.775,250.843,160.314,250.87,159.855,250.87z"/>
	<path style="fill:#EE3840;" d="M159.855,169.784c-2.602,0-5.142-0.877-7.202-2.51l-20.851-16.547
		c-5.01-3.978-5.85-11.264-1.872-16.275c3.977-5.011,11.262-5.85,16.275-1.872l11.688,9.276l29.886-38.425
		c3.929-5.05,11.207-5.956,16.255-2.032c5.049,3.928,5.96,11.206,2.032,16.255l-37.068,47.659c-1.899,2.44-4.694,4.021-7.763,4.389
		C160.775,169.757,160.314,169.784,159.855,169.784z"/>
</g>
<g>
	<path style="fill:#7A7674;" d="M361.412,145.955H231.674c-6.397,0-11.584-5.187-11.584-11.584s5.187-11.584,11.584-11.584h129.738
		c6.397,0,11.584,5.187,11.584,11.584S367.808,145.955,361.412,145.955z"/>
	<path style="fill:#7A7674;" d="M361.412,227.041H231.674c-6.397,0-11.584-5.187-11.584-11.584c0-6.397,5.187-11.584,11.584-11.584
		h129.738c6.397,0,11.584,5.187,11.584,11.584C372.996,221.854,367.808,227.041,361.412,227.041z"/>
	<path style="fill:#7A7674;" d="M361.412,308.127H231.674c-6.397,0-11.584-5.187-11.584-11.584s5.187-11.584,11.584-11.584h129.738
		c6.397,0,11.584,5.187,11.584,11.584S367.808,308.127,361.412,308.127z"/>
</g>
<path style="fill:#11113F;" d="M440.077,426.399c0.159-0.205,0.319-0.41,0.463-0.626c0.051-0.078,0.095-0.16,0.145-0.239
	c0.154-0.241,0.306-0.484,0.441-0.738c0.029-0.053,0.051-0.11,0.079-0.163c0.146-0.283,0.285-0.568,0.408-0.863
	c0.015-0.035,0.025-0.073,0.039-0.108c0.126-0.313,0.243-0.63,0.343-0.957c0.012-0.039,0.019-0.079,0.03-0.118
	c0.094-0.321,0.18-0.645,0.246-0.977c0.02-0.097,0.028-0.197,0.045-0.294c0.047-0.275,0.096-0.549,0.124-0.831
	c0.038-0.382,0.058-0.768,0.058-1.156V11.584C442.498,5.187,437.311,0,430.914,0H81.086c-6.397,0-11.584,5.187-11.584,11.584
	v488.833c0,6.397,5.187,11.584,11.584,11.584h268.742c0.388,0,0.774-0.02,1.156-0.058c0.286-0.028,0.566-0.078,0.846-0.126
	c0.093-0.016,0.187-0.024,0.278-0.043c0.332-0.067,0.657-0.152,0.979-0.246c0.038-0.012,0.079-0.019,0.117-0.03
	c0.326-0.1,0.644-0.217,0.957-0.343c0.036-0.015,0.073-0.024,0.108-0.039c0.295-0.123,0.58-0.262,0.863-0.408
	c0.054-0.028,0.11-0.05,0.163-0.079c0.255-0.138,0.5-0.29,0.744-0.445c0.076-0.049,0.156-0.09,0.232-0.141
	c0.218-0.145,0.423-0.306,0.629-0.466c0.094-0.073,0.192-0.137,0.284-0.212c0.212-0.174,0.411-0.363,0.609-0.553
	c0.074-0.071,0.154-0.133,0.227-0.205l81.086-81.086c0.073-0.073,0.134-0.153,0.205-0.227c0.189-0.199,0.378-0.397,0.553-0.609
	C439.939,426.593,440.004,426.494,440.077,426.399z M92.67,23.167H419.33v384.579h-69.502c-6.397,0-11.584,5.187-11.584,11.584
	v69.502H92.67V23.167z M402.948,430.914l-41.536,41.536v-41.536H402.948z"/>
<g>
</g>
<g>
</g>
<g>
</g>
<g>
</g>
<g>
</g>
<g>
</g>
<g>
</g>
<g>
</g>
<g>
</g>
<g>
</g>
<g>
</g>
<g>
</g>
<g>
</g>
<g>
</g>
<g>
</g>
</svg>
