<?xml version="1.0" encoding="iso-8859-1"?>
<!-- Generator: Adobe Illustrator 19.0.0, SVG Export Plug-In . SVG Version: 6.00 Build 0)  -->
<svg version="1.1" id="Layer_1" xmlns="http://www.w3.org/2000/svg" xmlns:xlink="http://www.w3.org/1999/xlink" x="0px" y="0px"
	 viewBox="0 0 502 502" style="enable-background:new 0 0 502 502;" xml:space="preserve">
<g>
	<rect x="13.708" y="10" style="fill:#F77E65;" width="474.585" height="81.569"/>
	<rect x="13.708" y="91.569" style="fill:#F0EFE4;" width="474.585" height="400.431"/>
	<g>
		<path style="fill:#F77E65;" d="M198.016,153.953c-0.327,0-0.651,0.012-0.975,0.024c-6.744-0.282-13.581,2.148-18.731,7.298
			l-72.988,72.988c-9.763,9.764-9.763,25.593,0,35.355c4.882,4.882,11.28,7.322,17.678,7.322c6.398,0,12.796-2.44,17.678-7.322
			l32.338-32.338V404c0,13.807,11.193,25,25,25s25-11.193,25-25V178.953C223.016,165.146,211.822,153.953,198.016,153.953z"/>
		<path style="fill:#F77E65;" d="M355.016,153.953c-0.327,0-0.651,0.012-0.975,0.024c-6.744-0.282-13.581,2.148-18.731,7.298
			l-72.988,72.988c-9.763,9.763-9.763,25.593,0,35.355c4.882,4.882,11.28,7.322,17.678,7.322s12.796-2.44,17.678-7.322
			l32.338-32.338V404c0,13.807,11.193,25,25,25s25-11.193,25-25V178.953C380.016,165.146,368.823,153.953,355.016,153.953z"/>
	</g>
	<g>
		<path d="M498.292,10c0-5.522-4.477-10-10-10H13.708c-5.523,0-10,4.478-10,10v482c0,5.522,4.477,10,10,10h474.585
			c5.523,0,10-4.478,10-10V10H498.292z M23.708,20h454.585v61.569H23.708V20z M478.292,482H23.708V101.569h454.585V482H478.292z"/>
		<path d="M122.999,286.941c9.35,0,18.139-3.641,24.749-10.251l15.267-15.267V404c0,19.299,15.701,35,35,35s35-15.701,35-35V178.953
			c0-19.299-15.701-35-35-35c-0.329,0-0.655,0.008-0.98,0.018c-9.613-0.277-18.996,3.432-25.796,10.233l-72.988,72.988
			c-6.611,6.612-10.252,15.401-10.252,24.749c0,9.35,3.641,18.139,10.251,24.749C104.861,283.301,113.65,286.941,122.999,286.941z
			 M112.393,241.335l72.988-72.989c2.999-3.001,6.975-4.547,11.241-4.377c0.269,0.011,0.54,0.011,0.809,0.001
			c0.194-0.008,0.388-0.017,0.584-0.017c8.271,0,15,6.729,15,15V404c0,8.271-6.729,15-15,15s-15-6.729-15-15V237.281
			c0-4.045-2.437-7.691-6.173-9.239c-1.237-0.512-2.536-0.761-3.825-0.761c-2.602,0-5.16,1.016-7.073,2.929l-32.338,32.339
			c-2.833,2.832-6.6,4.393-10.606,4.393c-4.006,0-7.773-1.561-10.607-4.394c-2.833-2.833-4.393-6.6-4.393-10.606
			S109.559,244.168,112.393,241.335z"/>
		<path d="M280,286.941c9.349,0,18.138-3.641,24.749-10.251l15.267-15.267V404c0,19.299,15.701,35,35,35s35-15.701,35-35V178.953
			c0-19.299-15.701-35-35-35c-0.328,0-0.654,0.008-0.98,0.018c-9.604-0.266-18.995,3.431-25.796,10.233l-72.988,72.988
			C248.64,233.802,245,242.591,245,251.941c0,9.35,3.641,18.139,10.251,24.749C261.862,283.301,270.651,286.941,280,286.941z
			 M269.394,241.335l72.988-72.989c3-3.001,6.986-4.547,11.241-4.377c0.269,0.011,0.539,0.011,0.809,0.001
			c0.194-0.008,0.388-0.017,0.583-0.017c8.271,0,15,6.729,15,15V404c0,8.271-6.729,15-15,15s-15-6.729-15-15V237.281
			c0-4.045-2.437-7.691-6.173-9.239c-1.237-0.512-2.536-0.761-3.825-0.761c-2.602,0-5.16,1.016-7.073,2.929l-32.338,32.338
			c-2.833,2.833-6.6,4.394-10.606,4.394s-7.773-1.561-10.607-4.394c-2.833-2.833-4.393-6.6-4.393-10.606
			S266.56,244.168,269.394,241.335z"/>
		<path d="M239.999,48H51c-5.523,0-10,4.478-10,10s4.477,10,10,10h189c5.523,0,10-4.478,10-10S245.522,48,239.999,48z"/>
		<path d="M305,48h-27c-5.523,0-10,4.478-10,10s4.477,10,10,10h27c5.523,0,10-4.478,10-10S310.523,48,305,48z"/>
	</g>
</g>
<g>
</g>
<g>
</g>
<g>
</g>
<g>
</g>
<g>
</g>
<g>
</g>
<g>
</g>
<g>
</g>
<g>
</g>
<g>
</g>
<g>
</g>
<g>
</g>
<g>
</g>
<g>
</g>
<g>
</g>
</svg>
