<?xml version="1.0" encoding="iso-8859-1"?>
<!-- Generator: Adobe Illustrator 19.0.0, SVG Export Plug-In . SVG Version: 6.00 Build 0)  -->
<svg version="1.1" id="Layer_1" xmlns="http://www.w3.org/2000/svg" xmlns:xlink="http://www.w3.org/1999/xlink" x="0px" y="0px"
	 viewBox="0 0 312.461 312.461" style="enable-background:new 0 0 312.461 312.461;" xml:space="preserve">
<g>
	<path style="fill:#28D2E4;" d="M284.96,264.24H27.5c-11.046,0-20-8.954-20-20V68.222c0-11.046,8.954-20,20-20h257.46
		c11.046,0,20,8.954,20,20v176.019C304.96,255.286,296.006,264.24,284.96,264.24z"/>
	<rect x="46.826" y="94.231" style="fill:#13829B;" width="74.608" height="124"/>
	<rect x="162.23" y="94.231" style="fill:#13829B;" width="105" height="26.621"/>
	<circle style="fill:#FFDB77;" cx="84.13" cy="136.23" r="14"/>
	<g>
		<path style="fill:#FFDB77;" d="M84.13,177.898c-20.587,0-37.304,16.686-37.304,37.304v3.029h74.608v-3.029
			C121.434,194.6,104.733,177.898,84.13,177.898z"/>
		<g>
			<path style="fill:#22313F;" d="M284.961,40.721H27.5c-15.164,0-27.5,12.337-27.5,27.5v176.02c0,15.163,12.336,27.5,27.5,27.5
				h257.461c15.163,0,27.5-12.337,27.5-27.5V68.221C312.461,53.058,300.124,40.721,284.961,40.721z M297.461,244.241
				c0,6.893-5.608,12.5-12.5,12.5H27.5c-6.893,0-12.5-5.607-12.5-12.5V68.221c0-6.893,5.607-12.5,12.5-12.5h257.461
				c6.892,0,12.5,5.607,12.5,12.5V244.241z"/>
			<path style="fill:#22313F;" d="M121.434,86.731H46.826c-4.142,0-7.5,3.357-7.5,7.5v120.971v3.029c0,4.143,3.358,7.5,7.5,7.5
				h74.608c4.142,0,7.5-3.357,7.5-7.5v-3.029V94.231C128.934,90.089,125.576,86.731,121.434,86.731z M113.934,101.731v80.055
				c-17.018-15.195-42.605-15.182-59.608,0v-80.055H113.934z M54.66,210.73c2.164-14.32,14.555-25.333,29.47-25.333
				s27.306,11.013,29.47,25.333L54.66,210.73L54.66,210.73z"/>
			<path style="fill:#22313F;" d="M267.23,86.731h-105c-4.143,0-7.5,3.357-7.5,7.5v26.621c0,4.143,3.357,7.5,7.5,7.5h105
				c4.143,0,7.5-3.357,7.5-7.5V94.231C274.73,90.089,271.373,86.731,267.23,86.731z M259.73,113.352h-90v-11.621h90V113.352z"/>
			<path style="fill:#22313F;" d="M267.23,148.73h-105c-4.143,0-7.5,3.357-7.5,7.5s3.357,7.5,7.5,7.5h105c4.143,0,7.5-3.357,7.5-7.5
				C274.73,152.089,271.373,148.73,267.23,148.73z"/>
			<path style="fill:#22313F;" d="M267.23,179.73h-105c-4.143,0-7.5,3.357-7.5,7.5s3.357,7.5,7.5,7.5h105c4.143,0,7.5-3.357,7.5-7.5
				C274.73,183.089,271.373,179.73,267.23,179.73z"/>
			<path style="fill:#22313F;" d="M223.23,210.73h-61c-4.143,0-7.5,3.357-7.5,7.5s3.357,7.5,7.5,7.5h61c4.143,0,7.5-3.357,7.5-7.5
				C230.73,214.089,227.373,210.73,223.23,210.73z"/>
			<path style="fill:#22313F;" d="M84.13,157.73c11.855,0,21.5-9.645,21.5-21.5s-9.645-21.5-21.5-21.5s-21.5,9.645-21.5,21.5
				S72.275,157.73,84.13,157.73z M84.13,129.73c3.584,0,6.5,2.916,6.5,6.5s-2.916,6.5-6.5,6.5s-6.5-2.916-6.5-6.5
				S80.546,129.73,84.13,129.73z"/>
		</g>
	</g>
</g>
<g>
</g>
<g>
</g>
<g>
</g>
<g>
</g>
<g>
</g>
<g>
</g>
<g>
</g>
<g>
</g>
<g>
</g>
<g>
</g>
<g>
</g>
<g>
</g>
<g>
</g>
<g>
</g>
<g>
</g>
</svg>
