<?xml version="1.0" encoding="iso-8859-1"?>
<!-- Generator: Adobe Illustrator 19.0.0, SVG Export Plug-In . SVG Version: 6.00 Build 0)  -->
<svg version="1.1" id="Layer_1" xmlns="http://www.w3.org/2000/svg" xmlns:xlink="http://www.w3.org/1999/xlink" x="0px" y="0px"
	 viewBox="0 0 512.001 512.001" style="enable-background:new 0 0 512.001 512.001;" xml:space="preserve">
<g>
	<g>
		<g>
			<path d="M280.015,31.64c-9.752,0-18.491,4.408-24.341,11.33c-5.838-6.486-14.293-10.575-23.687-10.575H0v407.941h231.987
				c8.909,0,16.158,7.249,16.158,16.158h15.713v-0.756c0-8.909,7.249-16.157,16.158-16.157h231.986V31.64H280.015z M248.145,429.03
				c-4.74-2.8-10.265-4.407-16.158-4.407H15.713V48.109h216.274c8.909,0,16.158,7.249,16.158,16.158V429.03z M496.288,423.869
				h-0.001H280.015c-5.893,0-11.417,1.607-16.158,4.407V64.267v-0.756c0-8.909,7.249-16.158,16.158-16.158h216.273V423.869z"/>
			<rect x="248" y="464.648" width="16.009" height="15.713"/>
			<rect x="47.88" y="88.432" width="168.095" height="15.713"/>
			<rect x="47.88" y="128.447" width="168.095" height="15.713"/>
			<rect x="47.88" y="168.472" width="168.095" height="15.713"/>
			<rect x="47.88" y="208.498" width="168.095" height="15.713"/>
			<rect x="47.88" y="248.524" width="168.095" height="15.713"/>
			<rect x="47.88" y="288.539" width="168.095" height="15.713"/>
			<rect x="47.88" y="328.565" width="168.095" height="15.713"/>
			<rect x="47.88" y="368.591" width="168.095" height="15.713"/>
			<rect x="296.029" y="88.432" width="168.095" height="15.713"/>
			<rect x="296.029" y="128.447" width="168.095" height="15.713"/>
			<rect x="296.029" y="168.472" width="168.095" height="15.713"/>
			<rect x="296.029" y="208.498" width="168.095" height="15.713"/>
			<rect x="296.029" y="248.524" width="168.095" height="15.713"/>
			<rect x="296.029" y="288.539" width="168.095" height="15.713"/>
			<rect x="296.029" y="328.565" width="168.095" height="15.713"/>
			<rect x="296.029" y="368.591" width="168.095" height="15.713"/>
		</g>
	</g>
</g>
<g>
</g>
<g>
</g>
<g>
</g>
<g>
</g>
<g>
</g>
<g>
</g>
<g>
</g>
<g>
</g>
<g>
</g>
<g>
</g>
<g>
</g>
<g>
</g>
<g>
</g>
<g>
</g>
<g>
</g>
</svg>
