<?xml version="1.0" encoding="iso-8859-1"?>
<!-- Generator: Adobe Illustrator 19.0.0, SVG Export Plug-In . SVG Version: 6.00 Build 0)  -->
<svg version="1.1" id="Layer_1" xmlns="http://www.w3.org/2000/svg" xmlns:xlink="http://www.w3.org/1999/xlink" x="0px" y="0px"
	 viewBox="0 0 512 512" style="enable-background:new 0 0 512 512;" xml:space="preserve">
<polygon style="fill:#FFFFFF;" points="6,409.375 6,102.632 440.256,103.264 440.256,409.375 "/>
<path style="fill:#333333;" d="M12,108.64l422.256,0.608v294.128H12V108.64 M0,96.624v318.752h446.255V97.263L0,96.624z"/>
<polygon style="fill:#E21B1B;" points="462.191,153.488 337.952,350.728 388.008,382.263 512,185.423 "/>
<g style="opacity:0.2;">
	<polygon style="fill:#FFFFFF;" points="16.064,208.407 16.064,112.656 111.816,112.656 	"/>
</g>
<polygon style="fill:#F91E1E;" points="462.191,153.488 337.952,350.728 362.976,366.295 486.968,169.456 "/>
<path d="M243.68,334.856h-34.32l-13.64-35.496h-62.465l-12.896,35.496H86.888l60.856-156.264h33.36L243.68,334.856z M185.6,273.032
	l-21.52-57.984l-21.113,57.984H185.6z"/>
<path d="M270.328,262.352v-31.424h-31.672v-21.696h31.672V177.8h21.12v31.432H323.2v21.696h-31.76v31.424H270.328z"/>
<g>
</g>
<g>
</g>
<g>
</g>
<g>
</g>
<g>
</g>
<g>
</g>
<g>
</g>
<g>
</g>
<g>
</g>
<g>
</g>
<g>
</g>
<g>
</g>
<g>
</g>
<g>
</g>
<g>
</g>
</svg>
