<?xml version="1.0" encoding="iso-8859-1"?>
<!-- Generator: Adobe Illustrator 16.0.0, SVG Export Plug-In . SVG Version: 6.00 Build 0)  -->
<!DOCTYPE svg PUBLIC "-//W3C//DTD SVG 1.1//EN" "http://www.w3.org/Graphics/SVG/1.1/DTD/svg11.dtd">
<svg version="1.1" id="Capa_1" xmlns="http://www.w3.org/2000/svg" xmlns:xlink="http://www.w3.org/1999/xlink" x="0px" y="0px"
	 width="33.416px" height="33.416px" viewBox="0 0 33.416 33.416" style="enable-background:new 0 0 33.416 33.416;"
	 xml:space="preserve">
<g>
	<path d="M15.078,20.591l0.368,1.243h2.78l-3.173-8.716h-2.626l-3.208,8.716h2.696l0.393-1.243H15.078z M13.735,16.037h0.024
		l0.78,2.688h-1.646L13.735,16.037z"/>
	<polygon points="20.866,15.673 20.866,17.82 18.717,17.82 18.717,19.688 20.866,19.688 20.866,21.834 22.731,21.834 22.731,19.688 
		24.881,19.688 24.881,17.82 22.731,17.82 22.731,15.673 	"/>
	<path d="M16.706,28.625c6.011,0,10.898-3.874,10.898-9.881c0-6.008-4.89-10.895-10.898-10.895c-1.838,0-4.659,0.891-5.092,1.271
		c-0.435,0.384-0.298,1.259,0.509,0.882c0.81-0.377,2.931-1.136,4.583-1.136c5.448,0,9.882,4.432,9.882,9.878
		c0,5.445-4.434,8.861-9.882,8.861c-5.446,0-9.877-3.416-9.877-8.861c0-1.729,0.908-4.419,1.23-4.763
		c0.322-0.348-0.493-1.226-0.818-0.612c-0.321,0.612-1.429,3.42-1.429,5.375C5.812,24.751,10.699,28.625,16.706,28.625z"/>
	<path d="M24.623,0l-0.244,0.022L24.357,0H2.697v33.416h28.021V8.991V6.362V6.098L24.623,0z M4.197,31.916V1.5h19.15v5.97h5.871
		v24.446H4.197z"/>
</g>
<g>
</g>
<g>
</g>
<g>
</g>
<g>
</g>
<g>
</g>
<g>
</g>
<g>
</g>
<g>
</g>
<g>
</g>
<g>
</g>
<g>
</g>
<g>
</g>
<g>
</g>
<g>
</g>
<g>
</g>
</svg>
